<?xml version="1.0" encoding="utf-8"?>
<!-- Generator: Adobe Illustrator 21.1.0, SVG Export Plug-In . SVG Version: 6.00 Build 0)  -->
<svg version="1.1" id="Ebene_1" xmlns="http://www.w3.org/2000/svg" xmlns:xlink="http://www.w3.org/1999/xlink" x="0px" y="0px"
	 viewBox="0 0 56.2 46.5" style="enable-background:new 0 0 56.2 46.5;" xml:space="preserve">
<style type="text/css">
	.st0{fill:#FFFFFF;}
</style>
<g id="XMLID_536_">
	<path id="XMLID_547_" class="st0" d="M13.2,32.1c0,3.2,2.6,5.7,5.7,5.7h18.3c3.2,0,5.7-2.6,5.7-5.7v-9.1H36v4c0,2.2-1.8,4-4,4H13.2
		V32.1z"/>
	<path id="XMLID_541_" class="st0" d="M42.9,13.8c0-3.1-2.6-5.7-5.7-5.7H19c-3.2,0-5.7,2.6-5.7,5.7v9.1h6.9v-4c0-2.2,1.8-4,4-4h18.8
		V13.8z"/>
	<path id="XMLID_540_" class="st0" d="M25.8,19.7c-0.5,0-0.9,0.4-0.9,0.9v4.6c0,0.5,0.4,0.9,0.9,0.9h4.6c0.5,0,0.9-0.4,0.9-0.9v-4.6
		c0-0.5-0.4-0.9-0.9-0.9H25.8z"/>
	<path id="XMLID_539_" class="st0" d="M47.9,33.8c0,5.1-4.2,9.3-9.3,9.3H17.5c-5.1,0-9.3-4.2-9.3-9.3v-1.3h0l0-1.6H5.6v2.9
		c0,6.6,5.3,11.9,11.9,11.9h21.2c6.6,0,11.9-5.3,11.9-11.9V22.9h-2.6V33.8z"/>
	<path id="XMLID_537_" class="st0" d="M38.7,0.7H28.1H17.5c-6.6,0-11.9,5.3-11.9,11.9v10.3h2.6V12.6c0-5.1,4.2-9.3,9.3-9.3h10.6
		h10.6c5.1,0,9.3,4.2,9.3,9.3V15h2.6v-2.3C50.6,6.1,45.2,0.7,38.7,0.7z"/>
</g>
</svg>
